<svg version="1.1" id="Calque_1" xmlns="http://www.w3.org/2000/svg" x="0px" y="0px" viewBox="0 0 512 453" style="enable-background:new 0 0 512 453;">
	<g class="background">
		<path d="M449.8,7.5c-11.2-0.5-22.2,3.6-30.4,11.3l-44.2,41.7c-2.8,2.6-5.7,5.5-6,9.3c-0.3,3.5,1.8,6.7,2.4,10.1 c1.5,9.2-8.7,17-18,16.4c-5.1-0.5-9.9-2.3-14.1-5.3c-4.6-3-5.9-9.2-2.9-13.7c0.3-0.4,0.5-0.8,0.9-1.1c2.6-2.9,4.8-6.2,6.5-9.7 c2.3-5,0.2-11-4.8-13.3c-0.3-0.2-0.7-0.3-1.1-0.4l-23.4-7.8c-11.3-3.8-23.3-7.6-35-5.1c-17,3.6-28.5,19.2-37.1,34.4 s-16.6,31.8-31.5,40.8c-4.7,2.8-10,4.8-14.5,8c-4.2,3-21.1,23.7-17.9,31.2c2.1,4.7,6.6,7.8,11.7,8.1c10.6,0.8,18.5-6,25.9-12.5 c-2.2,17.3-3.2,48.6,8,49.9s26.9-31.7,27.3-41.9s-8.4-9.6-7.8-15.9s3.4-12.1,5.4-18.1c4.1-12.1,5.5-25.9,17.4-33.3 c5.4-3.5,12.4-3,17.3,1.1c5.3,4.8,4.3,11.4,1.8,16.9c-3.2,7-8.8,12.8-11.8,19.9c-3,7.1-2.5,16.9,4.2,20.7 c7.2,4.1,15.8-1.1,22.9-5.1s18-6.2,22.1,1c-2.3,11.6-4.8,23.6-11.9,32.9s-20.4,15.2-31,10c-5.2,0.8-8.1,6.8-8.4,12 s0.8,10.7-0.4,15.9c-3.4,14.7-22.3,18.3-37.3,18.9l-29.9,1.2c-2,0.1-4.2,0.1-5.8-1.2s-1.9-3.8-1.9-6c-0.2-8,3.9-17.4-1.4-23.9 c-4.3-4.1-17.1-3-19.2,2.5s1.8,16.3-2.2,21.8s-14.7,7.7-21.4,19.8c-1.9,3.4-3.4,7.1-6.2,9.6c-2.6,2.4-6.2,3.5-9.6,4.6 c-16.3,5.2-41.5-6.5-49.8,2.4c-6.9,8.5-3.1,21.1,0.5,31.5s5.8,23.9-2.8,30.7c-7.8,6.2-19.1,2.6-28.2-1.2l-22.8-9.5 c-5.4-2.2-11.6,0.3-13.9,5.7c-0.2,0.4-0.3,0.8-0.4,1.3l-8.7,31.9C8.4,362.6,6.6,369.4,8,376c2.4,11.6,14.1,19.1,25.5,22.4 c7.9,2.3,16.1,3.2,24.1,5c5.8,1.4,11.6-2,13.3-7.7c1.3-4.9,3.3-9.7,5.8-14.1c4.5-7.6,11.9-14.1,20.7-15.2c4.3-0.5,9.6-0.1,12.2-3.6 c2.1-2.8,1.4-6.8,3-9.8c3-5.5,11-4.7,17.3-3.9c10.6,1.2,21.4-0.4,31.2-4.6c4.7-2.1,10.2-0.6,13.3,3.6c7.5,10.4,12.1,29.3,18.9,40.4 c6.6,10.9,11.3,12.8,11.3,29c-7.4,4.6-13.5,12.1-22.1,11.4c-2.1,3.1,9.6,13.9,13,15.5s7.3,1.1,10.9,0.3 c12.5-2.9,17.4-14.3,18.9-16.9s9-4.8,9-4.8c1.3,1,3.1,0.8,4.1-0.5c0,0,0,0,0,0c1.8-2.6,1.8-6.6,0.2-9.5c-2.1-3.9-6-6.3-9.6-8.8 c-12.3-8.5-13.9-32.5-22.4-44.8c-2.1-3-3.6-6.4-4.4-10c-0.8-3.7,1.5-7.3,5.2-8.1c1.7-0.4,3.4-0.1,4.9,0.8l40.6,23.9 c2.3,1.4,4.7,2.8,6.2,5.1c3.8,5.9-0.5,14,1.5,20.7c1.6,5.2,6.5,8.4,10.5,12s1.6,11.4,5.3,14.2c2.5,1,5.3,0.9,7.7-0.1 c1.9-0.8,3.9-1.3,5.9-1.3c4.9-0.1,10-1.8,9-6.4c-0.2-0.9-0.7-1.8-1.3-2.5l-8-16.3c-1.3-4.8,3.8-5.6,6.7-5.8s9.9,0,13.6,0 s22-16.6,23.3-23.9c1.6-8.7,3.1-17.5,4.7-26.2c0.7-4,1.6-8.3,4.4-11.1s6.2,2.2,10.5,0.3c5.6-2.5,2.2-9.5,10-9.6 c3-0.1,5.8,1.4,7.5,3.9c0.6,1.1,1.8,1.8,3.1,1.8c0.7-0.1,1.4-0.3,2-0.8c5.8-4.4,10.2-10.5,15.6-15.4c5.2-4.6,15.7-10.5,18.8-7 s7.7,18.2-16,31.6c-5.1,2.9-5.2,7.1-2.5,12.6c1.3,2.4,3.7,3.9,6.5,3.9c6.3,0.1,15.4-8.8,26-0.1c0.8,0.6,6.3,15.9-5.2,19.1 c-15.7,4.4-22.1,3.8-40.8,6.2c-8.6,1.1-17.9,2.6-23.8,9c-4.2,4.5-6.1,11-11.1,14.6c-2.7,1.9-6.1,2.8-8.6,5 c-3.9,3.4-4.7,9.4-3.3,14.4s4.6,9.3,7.7,13.4c2,2.6,4,5.3,7,6.8c2.4,1.1,5.1,1.5,7.8,1.3c15.7-0.6,30.9-11.9,45.9-7.3 c3.2,1,6.2,2.6,9.5,2.6c4.5,0,8.4-2.9,12.1-5.5c15-10.5,32.3-17.4,50.5-20c3.9-0.5,8.4-1.3,10.3-4.8c0.7-1.7,1.1-3.5,1-5.3 c0.5-9.5,0.3-20.5-7.1-26.4c-3.1-2.5-6.9-3.6-10.5-5.3c-10.8-5-13.1-22-9.2-28.5s48.6,19.8,48.6,19.8V7.5 C504.5,7.5,456.2,7.9,449.8,7.5L449.8,7.5z"/>
	</g>
	<g class="border">
		<path d="M504.5,76L504.5,76c-4.1,0-7.5,3.3-7.5,7.5c0,0,0,0,0,0v258.2c-8.3-4.5-20.6-10.8-29.5-13.8c-3.7-1.2-13.6-4.5-18,2.9 c-3.2,5.4-3.7,14.1-1.2,22.2c5.5,17.7,17.5,17,22.6,21.2c4.5,3.6,4.7,11.8,4.3,20.2c0,0.7-0.1,1.3-0.2,2c-1.6,0.5-3.2,0.9-4.8,1.1 c-3.9,0.5-7.8,1.3-11.6,2.2c-4,1-6.5,5-5.5,9.1s5,6.5,9.1,5.5c3.4-0.8,6.8-1.5,10.2-2c11.4-1.6,17.3-5.7,17.9-17.1 c0.4-7.7,1.2-23.7-9.9-32.6c-8.4-6.8-14.5-3.7-17.7-13.9c-0.7-2.2-1-4.5-0.9-6.9c7.8,2.3,25,11,39,19.1c3.6,2.1,8.2,0.9,10.3-2.6 c0.7-1.1,1-2.5,1-3.8v-271C512,79.4,508.7,76.1,504.5,76C504.5,76.1,504.5,76.1,504.5,76L504.5,76z"/>
		<path d="M426.9,412.3c-11.1,6.2-14.9,10.7-18.1,10.7l0,0c-5.7,0-9.5-8.6-38.9,0.8c-3.3,1-16.7,5.5-21.1,3.4 c-1.8-0.9-9.3-10.3-10.7-15.5c-0.7-2.7-0.3-5.6,1-6.8c3.6-3.2,8.5-1.4,16.8-15.1c1-1.8,2.2-3.5,3.5-5.1c4-4.3,11.4-5.6,19.2-6.6 c5.6-0.7,10.2-1.2,14.2-1.6c9.4-0.9,16.2-1.6,27.7-4.9c6.3-1.6,11-6.7,12.2-13c1.4-6.7-0.7-16.1-4.3-19.1 c-10.7-8.8-20.8-5-26.9-2.8c-1.2,0.5-2.5,0.9-3.8,1.2c-0.3-0.7-0.6-1.4-0.8-2.2c2.4-1.7,19.6-10.2,22.4-26.1 c1.5-8.7-1.9-20.2-11.5-20.8c-7.9-0.5-17.7,6.2-21.9,9.9c-4.7,4.2-8.4,8.9-12.4,12.6c-3-2.7-7-4.1-11-4c-9.5,0.2-12,6.8-13,9.6v0 c-2.3-0.9-7.9-2.9-12.6,1.9c-5.8,5.7-5.8,11.2-11.2,41.3c-1.1,3.8-12.6,15.2-17.1,17.8c-3.9,0-10-0.1-12.8,0 c-12.3,0.5-16.4,9.8-13.1,16.6l7.1,14.4h-0.2c-2.9,0-5.8,0.6-8.5,1.8c0-0.2,0-0.3-0.1-0.5c-2.1-15.9-11.4-13.3-13.6-20.8 c-0.5-1.5-0.2-3.9,0-6.4c0.5-4.7,1.1-10.6-2.4-16.1c-2.5-3.8-6.1-5.9-8.7-7.5l-40.7-23.9c-6.8-4-15.6-1.7-19.5,5.1 c-1.8,3.1-2.4,6.7-1.6,10.2c1,4.5,2.9,8.8,5.6,12.6c2.8,4.1,4.9,10.4,7.1,17c10.8,32.3,19.6,28.8,24.1,35.3 c-19,5.8-12.5,18.1-27.1,21.5c-2.9,0.7-4.9,0.8-5.8,0.3c-1.7-1.1-3.2-2.4-4.7-3.9c5.7-2.9,10-7.2,14.4-10c2.2-1.4,3.5-3.8,3.5-6.3 c0.1-14.9-3.9-20.5-8.4-27c-11.7-16.8-13.4-33.4-23.1-46.9c-5.1-7-14.3-9.5-22.3-6.1c-8.6,3.7-18.1,5-27.4,4 c-7.2-0.8-19.2-2.2-24.7,7.8c-1.9,3.5-2,7-2.5,8.8c-3.4,1.1-21-1.4-33.3,19.6c-2.8,5-5,10.3-6.5,15.8c-1.2,4.2-5.4,2.1-14.5,0.5 c-4.7-0.9-9.2-1.7-13.5-2.9c-8.6-2.5-18.4-8.2-20.2-16.7c-1-4.9,0.6-11,2.1-16.3l8.7-31.9c0.4-1.7,2.2-2.6,3.8-2.2 c0.1,0,0.3,0.1,0.4,0.1l22.8,9.5c7.1,2.9,23.6,9.8,35.8,0.1c6.7-5.3,13-16.4,5.2-39c-3.2-9.2-6-18.7-2-24c1.4-1.1,6-1.3,13.8-0.4 c4.1,0.5,7.8-2.5,8.3-6.6c0.5-4.1-2.5-7.8-6.6-8.3c-10-1.2-20.3-1.7-26.7,5.2c-0.1,0.1-0.2,0.2-0.3,0.4 c-9.9,12.2-4.2,28.7-0.8,38.6c1.8,5.2,5.3,17.8-0.4,22.4c-4.6,3.7-13.5,0.8-20.7-2.2L36,310.4c-9.2-3.8-19.8,0.6-23.7,9.8 c-0.3,0.7-0.5,1.4-0.7,2.2l-8.7,31.8c-1.8,6.6-4.1,14.8-2.3,23.3c2.7,12.8,14.2,23.3,30.8,28.1c8.3,2.4,16.7,3.4,24.5,5.1 c9.7,2.3,19.4-3.4,22.2-13c1.1-4.3,2.8-8.5,5-12.4c10.8-18.5,23.9-6.6,32.4-18.1c3.2-4.3,3-9.4,3.6-10.7c1.3-1.1,7.5-0.4,9.8-0.1 c11.9,1.3,24-0.4,35-5.1c1.5-0.7,3.3-0.2,4.3,1.1c8.2,11.4,10,28,23,46.7c3.4,4.8,5.2,7.4,5.6,14.5c-5.6,4.1-9.8,8.1-13.9,7.8 c-5.5-0.5-9.7,4.9-8,11.1c1.9,7.1,13.1,16.7,17.1,18.6c5.1,2.5,10.4,2.1,15.9,0.8c14.7-3.4,21.2-15.7,23.4-19.8 c0.9-0.5,1.9-0.9,2.8-1.3c3.9,0.7,7.9-0.9,10.3-4.1c3.5-5.2,3.8-11.9,0.8-17.5c-2.8-5.2-7.3-8.2-12-11.4c-5.3-3.6-8.4-13-11.4-22.1 c-2.4-7.3-5-14.9-9-20.8c-1.2-1.7-2.1-3.6-2.8-5.6l39.1,23c4.4,2.6,4.5,2.4,3.8,9.1c-0.4,3.7-0.8,7.9,0.5,12.3 c2.2,7.3,8,11.3,12.5,15.3c1,2.5,0.1,10.3,6,14.8c2.9,2.2,9.4,3.3,15.3,0.8c3.3-1.4,11.8,0.4,17.1-6.3c3.4-4.2,3.2-10.1,0-14.7 l-5.3-10.7c3.2,0,7.9,0,11.1,0c1.7,0,6.2,0,17.8-11.3c7.7-7.5,12-13.8,12.9-18.8c5.2-29.5,5.1-29.1,5.8-31.1 c3.1,1.1,6.5,0.9,9.5-0.4c3.7-1.7,6.5-4.9,7.7-8.8c0.2,0.1,0.5,0.3,0.6,0.5c2.1,3.4,5.9,5.3,9.9,5c2.1-0.2,4.2-1,5.9-2.3 c6.5-5,11-11.2,16.1-15.7c2.6-2.3,5.6-4.1,8.7-5.5c0.1,1,0.1,2-0.2,3c-1.1,5-6.3,10.3-14.5,15c-3.9,2.2-12.2,8.8-5.6,22.4 c2.4,5,7.5,8.2,13.1,8.2c3.3,0,6.3-1.1,9.2-2.1c4.8-1.8,7.6-2.6,10.8-0.6c0.5,1.8,0.9,4.6,0.2,6.1c-0.1,0.3-0.3,0.6-1.4,0.9 c-10.2,2.9-16.1,3.5-25.1,4.4c-4.1,0.4-8.8,0.9-14.6,1.6c-8.1,1-20.3,2.6-28.3,11.3c-2,2.3-3.8,4.8-5.3,7.5 c-6.2,10.3-6.4,5-13.8,11.5c-5.7,5-7.9,13.7-5.6,22c2.2,7.8,11.5,21.5,18.6,25c9.4,4.6,22.3,0.6,32.2-2.6 c26.2-8.4,21.4-0.2,34.2-0.1h0.1c9.2,0,13.5-5.9,25.5-12.6c3.6-2,5-6.5,3-10.2c-2-3.6-6.5-5-10.2-3 C427.1,412.2,427,412.2,426.9,412.3L426.9,412.3z"/>
		<path d="M504.5,0C487.8,0.1,455,0.3,450.1,0c-13.3-0.5-26.2,4.3-35.9,13.4L370,55.1c-2.9,2.7-7.8,7.3-8.3,14.2 c-0.6,8.3,5,11.5,0.9,16c-7.4,8.2-23-0.3-19.6-4.1c3.1-3.4,5.7-7.3,7.7-11.5c4.1-8.7,0.3-19.2-8.4-23.3c-0.6-0.3-1.3-0.6-1.9-0.8 c-29.9-9.9-45.5-16.7-62.4-13.1c-21.6,4.5-34.4,24.1-44.9,43c-21,37.8-26.5,31-41,41.3c-3.5,2.5-26.3,26.6-20.5,40.3 c3.1,7.3,10.1,12.1,18,12.6c6.1,0.4,12.3-1,17.6-4c-0.4,12.7,0.4,28.2,6.5,35.8c5.1,6.4,13.9,8.2,22.7,0.6 c10.7-9.2,22.1-33.4,22.5-44.1c0.3-9.2-4.5-13.5-7.1-15.9l-0.6-0.5c0.8-6.1,3.4-9.2,7.4-23.5c2.6-9.1,4.8-16.9,11.8-21.2 c2.5-1.7,5.9-1.6,8.3,0.3c0.7,0.7,2.7,2.4,0,8.2c-2.9,6.3-8.5,12.1-11.9,20.1c-4.3,10.1-3.2,24.2,7.4,30.2 c16.4,9.3,30.1-9.3,40.5-7.8c-1.9,9-4.3,18.5-9.6,25.5c-6.4,8.4-16.1,10.6-21.8,7.8c-1.4-0.7-2.9-0.9-4.5-0.7 c-6.8,1.1-13.9,7.4-14.7,18.9c-0.4,5.5,0.6,10.9-0.2,14.6c-2.5,10.4-20.1,12.7-30.4,13.1l-29.8,1.2c-0.1-6.5,4.7-21.1-3.7-29 c-7.8-7.4-27.1-5.8-31.4,5.2c-1.6,3.9-1.3,8.3-1,12.4c0.5,8.2,0.6,7.6-5.2,11.3c-19.1,12.5-16.8,20.3-21.7,24.8 c-1.3,1-2.8,1.8-4.4,2.3c-3.9,1.2-6.1,5.5-4.9,9.4c1.2,3.9,5.5,6.1,9.4,4.9c0.1,0,0.3-0.1,0.4-0.1c3.5-1.1,6.8-2.9,9.6-5.3 c8.7-7.9,3.8-12.8,19.8-23.3c17.6-11.5,10.6-20.8,11.8-30.3c2.2-0.9,4.7-1,7-0.4c1.8,3.4-0.9,11.5-0.7,18.7 c0.2,9.5,5.2,14.9,15.5,14.5l29.9-1.2c32.2-1.3,41.9-14.1,44.3-24.7c1.5-6.6,0.2-12.1,0.6-17c0.1-1.5,0.5-3,1.4-4.4 c13.2,4.1,28.1-2.6,36.6-13.7s11.1-24.9,13.3-36c1.1-5.5-5.4-14.1-17.5-13.6c-14.6,0.5-25.2,13.2-31.2,9.8c-2.5-1.4-3-6.8-1-11.2 c2.6-6.2,8.2-12,11.7-19.7c4.6-10,3.3-19.3-3.6-25.5c-7.4-6.4-18.1-7.2-26.3-1.9c-11.8,7.3-15.2,19.2-18.2,29.7 c-4,14.1-7.3,18.4-8.1,27.3c-0.9,10.4,8,11.1,7.8,16.2c-0.3,7.5-11.5,30.2-18.7,34.4c-2.5-3.8-4.4-19.5-1.6-41.2 c0.5-4.1-2.4-7.9-6.5-8.4c-2.1-0.3-4.3,0.4-5.9,1.8c-7.4,6.6-13.2,11.2-20.3,10.6c-2.1-0.1-4-1.3-5.1-3.1 c0.4-5,11.4-19.8,15.2-22.6c12.6-9,22-4.1,45.4-46.2c8-14.5,18.6-32.2,34.8-35.6c12.4-2.6,25.6,3.1,54.5,12.7 c1.3,0.4,2,1.8,1.6,3.1c0,0.1-0.1,0.2-0.1,0.2c-4,8.4-10.9,11-9.5,21.5c2,16.2,30.8,27.4,46.1,10.5c10.4-11.5,2.8-22.6,3-24.9 c0.1-1.1,2.8-3.6,3.6-4.4l44.2-41.7c6.7-6.3,15.7-9.7,24.9-9.3c5,0.2,33.6,0.1,47.6,0v35.8c0,4.1,3.4,7.5,7.5,7.5s7.5-3.4,7.5-7.5 V7.5C512,3.4,508.6,0,504.5,0C504.5,0,504.5,0,504.5,0z"/>
	</g>
	<g class="circle">
		<circle cx="165.5" cy="257.4" r="7.3"/>
	</g>
</svg>
