<svg id="ae729c1c-7faf-48bd-aeb6-280be1130bad" data-name="Calque 1" xmlns="http://www.w3.org/2000/svg" viewBox="0 0 501.51 512.09"><path d="M481,147.5a28.39,28.39,0,0,1-5,5.4c-12,10.5-13.9,29.6-15.6,46.5-.7,7-1.7,17.4-3.5,20.6-5.6,1.5-9.8,5.3-14,9s-8.2,7.4-12.9,7.9c-13.8,1.5-23.7,11.9-24.8,25.9-1,13,6.1,24.5,16.8,27.3,7.9,2.1,10.5,3.6,11.2,4.1a20.28,20.28,0,0,1,.2,2.8,50.29,50.29,0,0,0,2.4,13.4l-.3.3c-3.4,2.5-9,6.7-8.8,13.9.1,3.2,1.4,8,7.4,12.1a17.49,17.49,0,0,1,3.8,3.4c-5.5.1-13.5,1.5-17,8.6-4.5,9.3,2.8,17.8,9.8,26,1.3,1.5,3,3.5,4.4,5.3-8.7,7.9-7.9,16.6-7,20.4,1.3,5.6,5.1,11,11,16.1,5,4.3,9.1,6.6,12.1,6.8l4.2.3c-.2.9-.3,1.9-.5,3-1,8.4-7,10.8-19.5,14.1-8.7,2.3-19.5,5.1-21.7,15.8-1,5.1-9.6,9.8-15,9.5-4.2-.2-7.8-3.1-13.3-7.9-7.3-6.3-17.3-14.9-32.8-12.8a74.58,74.58,0,0,1-11.6.9l-20-10.4c-4.5-.7-10.1-.1-17.3,1.7-29,7.5-43.3,23.4-43.3,48.6v1.6a13.9,13.9,0,0,0-7.6,2.6c-3.1,2.2-3.1,2.2-6.8.1-2.8-1.6-6.8-4-12-4a13.42,13.42,0,0,0-3.5.4,18.1,18.1,0,0,1-4,.4c-.3-.9-.5-2.3-.7-3.2-.8-4.1-2-10.4-7.8-14.1-3.8-2.4-8.4-3-13.7-1.7-5.6,1.4-8.2,1.2-9,1.1-.2-.3-.4-.7-.6-1-1.7-2.9-5.3-9.7-14.2-9.5-5,.1-15,1.9-20,2.4-9.8,1-13-1.2-15.4-2.6a19.18,19.18,0,0,0-10.6-3.5c-8,0-10-1.5-11.9-2.9a21.15,21.15,0,0,0-6.8-3.6,74.3,74.3,0,0,1-17-6.4l-.1-.1v-.9c.3-7.9-1.2-16-13.8-22.7,2-4.4,6-11.3,9.4-17.2,12.3-21.1,29.2-50,30.7-79.7.2-4.2,2.5-9,4.5-13.1,3-6.3,7.5-15.8-.1-22.7-1-2-1.5-8.4-1.8-12.3-.8-10.9-1.9-25.7-14.7-29.4-5.3-1.5-10.1-12.8-11.6-18.8a27.77,27.77,0,0,0,2.4-19.2c-5.1-23.1-37.2-43.5-50.8-51.2-11.4-6.5-16.6-7.3-21.8-7.6-2-.1-3.2-.2-6.6-1.9a25,25,0,0,1-3.5-2.1c.9-1.4,2-2.8,3.1-4.2,3.3-4.1,7.9-9.8,6.1-16.9a13.11,13.11,0,0,0-4.2-6.8c3-.7,6.1-1.1,7.8-.8,11.2,7.6,16.5,10.6,22.5,9.1a12.29,12.29,0,0,0,8-6.4c1.1-.2,4-.5,10.2.5,10.9,23.2,30.8,17.8,38.4,15.6a22.8,22.8,0,0,0,13.4,1.7,15.07,15.07,0,0,0,8-3.4,15,15,0,0,0,5.7-5.2c5.7-9,2.3-23.2-3.2-42.2-.8-2.7-1.5-5.3-2.1-7.5,3.9-.2,11.9,2.6,14.9,8.3s6.3,10.7,10.9,13.2a102.59,102.59,0,0,0,20,7.5c3.8.8,7.7,0,11.1-.6,10.9-2.2,18-8.2,18.6-15.8a14,14,0,0,1,1-4.6c1.1-.6,4.9-.7,7.4-.8,5.4-.2,12.2-.5,19.5-3.3,19.1-7.3,27.3-14.9,27.6-26.2,7.9-11.9,8.2-20.4,6.8-27.6,4.4-1.7,12.7-3.9,19.1-5.5l1.4,2.3c5.8,9.2,12.4,19.6,24.3,28.1,0,0,15.8,22.8,23.6,27.3,5,2.8,22.5,4,22.5,4a6.37,6.37,0,0,0,.2.7c1.6,6.9,4.9,21.3,28.5,23.6,10.7,1,12.1,3,14,5.4,2.5,3.3,6.2,8.3,16,10.6,5.9,1.4,7.4,3.1,9.7,5.6,2.8,3.1,6.6,7.3,14.9,9l2.7.6C459.5,140.7,476.1,144.1,481,147.5Z" transform="translate(0.02 -0.01)"/><path d="M500.9,142.5c-3.9-14.6-24.1-18.7-47.6-23.5l-2.7-.5c-1.8-.4-2.1-.7-4-2.8-3.2-3.5-8-8.9-20-11.7-2.7-.6-3-1-4.6-3.1-4.5-6-10.1-11.6-28-13.3-9.2-.9-9.7-2.9-10.9-8.2-1-4.4-3.8-16.2-17.8-16.2-10.1,0-14.3-1.3-16.1-2.4-1.4-.8-2.1-2-3.8-5.5C342.7,50,339,42.6,329,35.5c-8.7-6.2-13.7-14.1-18.9-22.5-1.8-2.9-3.6-5.8-5.7-8.7a9.87,9.87,0,0,0-10.5-4C266.6,6.8,258.1,9.8,254,16.5c-3.1,5.1-1.9,10-1.2,12.9.8,3.3,1.6,6.7-4.6,15.5a13.94,13.94,0,0,0-2.3,8.7v.5c-.6.8-3.6,3.7-14.8,8-4.2,1.6-8.8,1.8-13.2,2-9.1.4-24.1,1.1-27.1,20.7a20.3,20.3,0,0,1-10.9.9A17.38,17.38,0,0,1,167.6,76c-8.1-15.6-28.8-22.2-41.2-17.5-9.3,3.5-13.6,12.5-11,22.9.7,2.6,1.5,5.5,2.4,8.6,1.7,6,5.5,19.3,5.4,25-.2.1-.4.3-.6.4a10.91,10.91,0,0,0-3.3-1.9c-4-1.4-7.7-.3-11.3.8-8,2.4-12.3,3.7-16.5-8.4a10.13,10.13,0,0,0-7.4-6.5c-16.2-3.4-26.3-2.7-32.5,2.8-1.6-1-3.7-2.4-6.7-4.4-8.8-6-25.7-2.3-34.5,2.6C.9,105.4-.2,112,0,115.5c.3,4.8,2.8,8.9,7.7,12.2C4,132.4-.7,139.1,1.1,147.5c1.4,6.4,6.2,11.6,14.6,15.8a34.21,34.21,0,0,0,14.2,4c2.5.2,4.9.3,13.2,5.1,18.6,10.6,38.5,26.5,41.1,38.1a8.13,8.13,0,0,1-1.4,6.9c-1.6,2.2-3.8,5.3.9,18.6,2.9,8.2,9.5,22.4,22.3,26.9.9,2.4,1.4,8.4,1.6,12.1.6,7.9,1.2,16.1,5.2,22l-1.3,2.9c-2.5,5.3-6,12.5-6.4,20.7-1.2,24.9-16.7,51.4-28,70.7-10,17.2-15.6,26.7-12.7,35.3a12.83,12.83,0,0,0,7.6,8c5,2,6.4,3.5,6.7,3.8v2c-.2,4.2-.6,13,10.1,19.2,5.5,3.2,12.5,5.9,21.2,8.3l.6.5c4.3,3.2,10.1,6.7,23,6.8.3.1.6.4.9.5,7.4,4.5,16.7,8.4,42.2,3.2a2,2,0,0,1,.7-.1c5.9,9.6,14.2,12.4,28.6,9.5.9,4.4,2.4,11.4,8.9,15.7,4.8,3.2,10.9,4,18.7,2.6.6.3,1.4.8,2.1,1.2,2.8,1.6,7.4,4.3,13.5,4.3a24.42,24.42,0,0,0,13.1-4.1,14.84,14.84,0,0,1,3.1,1.5,10,10,0,0,0,16.4-9.5c-5.4-25.2,1.6-36.5,26.6-42.9,5.3-1.4,7.7-1.5,8.7-1.4l.5.6c6.5,8.1,14.7,12.2,37.5,9.1,6.3-.9,10.1,2.2,17,8.1,6.2,5.4,14,12.1,25.3,12.7,13.7.7,31-8.8,35.2-23.7,2.5-.9,5-1.7,7.6-2.4,11.8-3.1,31.5-8.2,34.3-31a21,21,0,0,1,2.4-7.7c1-1.8,3.5-6.5.5-11.7s-8.3-5.5-12.9-5.6c-2.2-.1-5.3-.2-9.7-.5-3.3-2.2-7.2-5.9-7.6-7.7a9.42,9.42,0,0,1,3-2.6,12.94,12.94,0,0,0,6.2-9.3c1.2-8-4.7-14.9-11-22.3-.5-.6-1-1.2-1.6-1.9,5.7-1.2,11.1-6.1,13.2-12.5,1.1-3.2,3.2-13.2-7-23.1,4-3.5,8.8-9.5,5.3-17.8a30.72,30.72,0,0,1-2.3-10.8c-.3-4.3-.6-10.1-5.6-15.2-3.9-4-9.9-6.9-20.6-9.7-.7-.2-2.3-2.7-2-6.5.2-3.1,1.6-6.9,7-7.5,11.1-1.2,18.6-8,24.1-12.9,1.9-1.7,4.7-4.2,5.7-4.5,14.9-3,16.6-20.8,18.3-38,1.2-12.5,2.8-28.1,8.8-33.4C492.8,164.7,504.2,154.8,500.9,142.5Zm-25,10.4c-12,10.5-13.9,29.6-15.6,46.5-.7,7-1.7,17.4-3.5,20.6-5.6,1.5-9.8,5.3-14,9s-8.2,7.4-12.9,7.9c-13.8,1.5-23.7,11.9-24.8,25.9-1,13,6.1,24.5,16.8,27.3,7.9,2.1,10.5,3.6,11.2,4.1a20.28,20.28,0,0,1,.2,2.8,50.29,50.29,0,0,0,2.4,13.4l-.3.3c-3.4,2.5-9,6.7-8.8,13.9.1,3.2,1.4,8,7.4,12.1a17.49,17.49,0,0,1,3.8,3.4c-5.5.1-13.5,1.5-17,8.6-4.5,9.3,2.8,17.8,9.8,26,1.3,1.5,3,3.5,4.4,5.3-8.7,7.9-7.9,16.6-7,20.4,1.3,5.6,5.1,11,11,16.1,5,4.3,9.1,6.6,12.1,6.8l4.2.3c-.2.9-.3,1.9-.5,3-1,8.4-7,10.8-19.5,14.1-8.7,2.3-19.5,5.1-21.7,15.8-1,5.1-9.6,9.8-15,9.5-4.2-.2-7.8-3.1-13.3-7.9-7.3-6.3-17.3-14.9-32.8-12.8a74.58,74.58,0,0,1-11.6.9l-20-10.4c-4.5-.7-10.1-.1-17.3,1.7-29,7.5-43.3,23.4-43.3,48.6v1.6a13.9,13.9,0,0,0-7.6,2.6c-3.1,2.2-3.1,2.2-6.8.1-2.8-1.6-6.8-4-12-4a13.42,13.42,0,0,0-3.5.4,18.1,18.1,0,0,1-4,.4c-.3-.9-.5-2.3-.7-3.2-.8-4.1-2-10.4-7.8-14.1-3.8-2.4-8.4-3-13.7-1.7-5.6,1.4-8.2,1.2-9,1.1-.2-.3-.4-.7-.6-1-1.7-2.9-5.3-9.7-14.2-9.5-5,.1-15,1.9-20,2.4-9.8,1-13-1.2-15.4-2.6a19.18,19.18,0,0,0-10.6-3.5c-8,0-10-1.5-11.9-2.9a21.15,21.15,0,0,0-6.8-3.6,74.3,74.3,0,0,1-17-6.4l-.1-.1v-.9c.3-7.9-1.2-16-13.8-22.7,2-4.4,6-11.3,9.4-17.2,12.3-21.1,29.2-50,30.7-79.7.2-4.2,2.5-9,4.5-13.1,3-6.3,7.5-15.8-.1-22.7-1-2-1.5-8.4-1.8-12.3-.8-10.9-1.9-25.7-14.7-29.4-5.3-1.5-10.1-12.8-11.6-18.8a27.77,27.77,0,0,0,2.4-19.2c-5.1-23.1-37.2-43.5-50.8-51.2-11.4-6.5-16.6-7.3-21.8-7.6-2-.1-3.2-.2-6.6-1.9a25,25,0,0,1-3.5-2.1c.9-1.4,2-2.8,3.1-4.2,3.3-4.1,7.9-9.8,6.1-16.9a13.11,13.11,0,0,0-4.2-6.8c3-.7,6.1-1.1,7.8-.8,11.2,7.6,16.5,10.6,22.5,9.1a12.29,12.29,0,0,0,8-6.4c1.1-.2,4-.5,10.2.5,10.9,23.2,30.8,17.8,38.4,15.6a22.8,22.8,0,0,0,13.4,1.7,15.07,15.07,0,0,0,8-3.4,15,15,0,0,0,5.7-5.2c5.7-9,2.3-23.2-3.2-42.2-.8-2.7-1.5-5.3-2.1-7.5,3.9-.2,11.9,2.6,14.9,8.3s6.3,10.7,10.9,13.2a102.59,102.59,0,0,0,20,7.5c3.8.8,7.7,0,11.1-.6,10.9-2.2,18-8.2,18.6-15.8a14,14,0,0,1,1-4.6c1.1-.6,4.9-.7,7.4-.8,5.4-.2,12.2-.5,19.5-3.3,19.1-7.3,27.3-14.9,27.6-26.2,7.9-11.9,8.2-20.4,6.8-27.6,4.4-1.7,12.7-3.9,19.1-5.5l1.4,2.3c5.8,9.2,12.4,19.6,24.3,28.1,0,0,15.8,22.8,23.6,27.3,5,2.8,22.5,4,22.5,4a6.37,6.37,0,0,0,.2.7c1.6,6.9,4.9,21.3,28.5,23.6,10.7,1,12.1,3,14,5.4,2.5,3.3,6.2,8.3,16,10.6,5.9,1.4,7.4,3.1,9.7,5.6,2.8,3.1,6.6,7.3,14.9,9l2.7.6c10.2,2.1,26.7,5.4,31.6,8.9a32,32,0,0,1-5,5.4Z" transform="translate(0.02 -0.01)"/><circle cx="71.76" cy="158.32" r="7.3"/></svg>