<svg
  xmlns="http://www.w3.org/2000/svg"
  viewBox="0 0 512 453.01"
>
	<g class="background">
		<path class="background" d="M449.75,7.54a41.69,41.69,0,0,0-30.38,11.32L375.12,60.6c-2.75,2.59-5.67,5.54-6,9.3-.26,3.46,1.8,6.66,2.37,10.08,1.55,9.23-8.71,17-18,16.39a28.94,28.94,0,0,1-14.06-5.27,9.92,9.92,0,0,1-2-14.86,39.91,39.91,0,0,0,6.46-9.68A10,10,0,0,0,338,52.85l-23.41-7.78c-11.33-3.76-23.32-7.57-35-5.12-17,3.57-28.51,19.2-37.07,34.35s-16.6,31.83-31.49,40.77c-4.73,2.84-10,4.77-14.47,8-4.21,3-21.1,23.73-17.94,31.24a13.65,13.65,0,0,0,11.68,8.06c10.6.81,18.53-6,25.86-12.52-2.22,17.27-3.24,48.64,8,49.89s26.94-31.67,27.32-41.88-8.35-9.57-7.82-15.86,3.38-12.1,5.42-18.07c4.14-12.07,5.47-25.9,17.38-33.34a14.41,14.41,0,0,1,17.27,1.13c5.31,4.79,4.3,11.44,1.82,16.86-3.21,7-8.77,12.79-11.8,19.89s-2.48,16.92,4.23,20.72c7.16,4.06,15.77-1.06,22.94-5.11s18-6.18,22.13,1c-2.29,11.56-4.77,23.57-11.91,32.94s-20.42,15.16-31,10c-5.22.84-8.06,6.76-8.43,12s.81,10.7-.4,15.85c-3.44,14.68-22.31,18.27-37.34,18.88L204.06,236c-2,.08-4.24.09-5.77-1.22s-1.9-3.82-1.95-6c-.21-8,3.9-17.45-1.41-23.9-4.32-4.1-17.06-3-19.25,2.51s1.84,16.27-2.23,21.77S158.76,236.88,152,249c-1.87,3.36-3.35,7.07-6.19,9.65-2.64,2.41-6.17,3.55-9.57,4.63-16.29,5.16-41.54-6.51-49.81,2.44-6.91,8.54-3.08,21.08.5,31.47s5.79,23.86-2.8,30.7c-7.76,6.17-19.07,2.62-28.22-1.18l-22.76-9.45a10.6,10.6,0,0,0-14.29,7l-8.71,31.86C8.39,362.64,6.61,369.4,8,376c2.44,11.65,14.06,19.12,25.48,22.4,7.87,2.27,16.11,3.21,24.07,5.05a11.13,11.13,0,0,0,13.26-7.72,60.89,60.89,0,0,1,5.75-14.11c4.48-7.65,11.87-14.1,20.65-15.17,4.35-.53,9.58-.09,12.2-3.61,2.06-2.77,1.39-6.79,3-9.82,3-5.54,11-4.66,17.25-3.94a62.26,62.26,0,0,0,31.21-4.56,11,11,0,0,1,13.28,3.61c7.51,10.44,12.1,29.27,18.85,40.42,6.62,10.94,11.34,12.83,11.27,29-7.38,4.63-13.48,12.15-22.14,11.38-2.07,3.08,9.63,13.89,13,15.51s7.29,1.12,10.9.28c12.5-2.93,17.44-14.3,18.93-16.91s9-4.84,9-4.84a2.92,2.92,0,0,0,4.13-.55c1.83-2.57,1.84-6.6.25-9.53-2.08-3.86-6-6.31-9.61-8.79-12.34-8.45-13.87-32.45-22.37-44.77a29,29,0,0,1-4.44-9.95A6.78,6.78,0,0,1,212,342.09L252.61,366c2.33,1.36,4.73,2.81,6.19,5.07,3.8,5.9-.52,14,1.52,20.66,1.57,5.18,6.5,8.43,10.51,12.05s1.6,11.38,5.28,14.17a10,10,0,0,0,7.71-.15,15.19,15.19,0,0,1,5.94-1.27c4.86-.06,10-1.83,9-6.44a6.52,6.52,0,0,0-1.26-2.54l-8-16.26c-1.31-4.84,3.82-5.64,6.69-5.77s9.89,0,13.63,0,22-16.56,23.32-23.88q2.33-13.12,4.66-26.23c.71-4,1.56-8.27,4.43-11.14s6.19,2.22,10.52.27c5.61-2.54,2.21-9.47,10.05-9.64a8.94,8.94,0,0,1,7.53,3.89,3.26,3.26,0,0,0,3.09,1.75,3.84,3.84,0,0,0,2-.79c5.84-4.43,10.18-10.5,15.65-15.36,5.17-4.59,15.74-10.51,18.77-6.95s7.7,18.18-16,31.61c-5.09,2.88-5.21,7.09-2.55,12.62a7.21,7.21,0,0,0,6.45,3.88c6.3.09,15.36-8.79,26-.09.79.65,6.26,15.85-5.21,19.09-15.67,4.43-22.13,3.79-40.8,6.21-8.57,1.12-17.88,2.6-23.75,8.95-4.17,4.52-6.08,11.05-11.09,14.62-2.71,1.93-6.11,2.8-8.61,5-3.91,3.42-4.71,9.39-3.33,14.4s4.56,9.29,7.67,13.44c2,2.62,4.05,5.34,7,6.79a16.06,16.06,0,0,0,7.77,1.28c15.67-.65,30.86-11.88,45.88-7.34,3.17.95,6.22,2.61,9.53,2.63,4.49,0,8.39-2.88,12.06-5.47a116.77,116.77,0,0,1,50.49-20c3.9-.55,8.43-1.29,10.33-4.75A12.31,12.31,0,0,0,482.7,395c.47-9.47.31-20.47-7.08-26.41-3.06-2.45-6.92-3.6-10.48-5.26-10.75-5-13.07-22-9.24-28.48s48.58,19.77,48.58,19.77l0-347.07s-48.29.32-54.75,0Z"/>
	</g>
	<g class="border">
		<path class="border" d="M504.5,76.05h0a7.5,7.5,0,0,0-7.51,7.5V341.77C488.7,337.3,476.34,331,467.45,328c-3.72-1.22-13.6-4.46-18,2.92-3.22,5.4-3.68,14.12-1.18,22.21,5.45,17.68,17.46,17.05,22.65,21.22,4.47,3.59,4.7,11.82,4.27,20.17a17.48,17.48,0,0,1-.16,1.95,21,21,0,0,1-4.82,1.08c-3.87.55-7.77,1.29-11.59,2.21a7.5,7.5,0,0,0,3.52,14.59c3.36-.81,6.78-1.47,10.18-1.95,11.35-1.61,17.27-5.67,17.86-17.12.38-7.71,1.19-23.74-9.87-32.63-8.41-6.75-14.54-3.69-17.71-13.94a20.7,20.7,0,0,1-.92-6.86c7.84,2.34,25,11,39,19.14A7.5,7.5,0,0,0,512,354.56v-271a7.49,7.49,0,0,0-7.49-7.5Z"/>
		<path class="border" d="M426.94,412.26C415.87,418.47,412,423,408.81,423h0c-5.73-.05-9.49-8.59-38.88.8-3.29,1.05-16.71,5.52-21.06,3.39-1.82-.9-9.29-10.28-10.73-15.5-.74-2.68-.29-5.58,1-6.75,3.65-3.19,8.52-1.39,16.77-15.06a32,32,0,0,1,3.5-5.1c4-4.31,11.36-5.58,19.21-6.6,5.63-.73,10.17-1.19,14.17-1.58,9.42-.94,16.22-1.61,27.7-4.86a16.54,16.54,0,0,0,12.21-13c1.4-6.71-.73-16.15-4.29-19.07-10.72-8.77-20.82-5-26.85-2.8a23.26,23.26,0,0,1-3.76,1.19,10,10,0,0,1-.77-2.2c2.39-1.7,19.59-10.24,22.39-26.13,1.54-8.68-1.85-20.16-11.54-20.83-7.86-.53-17.73,6.24-21.85,9.9-4.71,4.19-8.39,8.88-12.37,12.59a16.27,16.27,0,0,0-11-4c-9.49.2-12,6.78-13,9.59l0,.05c-2.29-.89-7.86-2.86-12.65,1.92-5.75,5.73-5.82,11.2-11.17,41.29-1.13,3.8-12.59,15.23-17.14,17.77-3.87,0-9.95-.09-12.76,0-12.31.54-16.44,9.81-13.1,16.58l7.1,14.42h-.2a22.59,22.59,0,0,0-8.55,1.77c0-.16,0-.32-.06-.46C279,394.38,269.77,397,267.5,389.51c-.46-1.51-.21-3.88.05-6.4.5-4.73,1.11-10.62-2.44-16.14-2.45-3.82-6.06-5.93-8.7-7.48l-40.66-23.87a14.28,14.28,0,0,0-21.17,15.32,36.15,36.15,0,0,0,5.6,12.63c2.83,4.11,4.92,10.37,7.12,17,10.77,32.31,19.56,28.8,24.1,35.33-19,5.79-12.47,18.08-27.1,21.51-2.9.68-4.89.77-5.81.33a32.1,32.1,0,0,1-4.66-3.89c5.72-2.86,10-7.18,14.45-10a7.51,7.51,0,0,0,3.51-6.32c.06-14.85-3.85-20.46-8.39-26.95-11.69-16.75-13.44-33.42-23.14-46.9a18.65,18.65,0,0,0-22.3-6.14,54.56,54.56,0,0,1-27.42,4c-7.2-.83-19.25-2.21-24.7,7.81-1.88,3.46-2,7-2.46,8.77-3.44,1.11-21-1.43-33.31,19.62a67.24,67.24,0,0,0-6.48,15.84c-1.22,4.25-5.44,2.11-14.54.45-4.74-.87-9.21-1.69-13.51-2.92-8.6-2.48-18.42-8.17-20.21-16.74-1-4.93.61-11,2.07-16.28l8.7-31.87a3.11,3.11,0,0,1,4.19-2.06l22.76,9.45c7.06,2.93,23.6,9.8,35.76.12,6.69-5.32,13-16.41,5.23-39-3.19-9.25-6-18.72-2-24,1.36-1.15,6-1.28,13.8-.36a7.5,7.5,0,1,0,1.75-14.9c-10-1.17-20.29-1.73-26.69,5.2-.11.12-.22.24-.32.37-9.87,12.19-4.16,28.74-.75,38.63,1.79,5.21,5.35,17.81-.39,22.38-4.64,3.7-13.49.75-20.67-2.24L36,310.37a18.11,18.11,0,0,0-24.41,12L2.93,354.2C1.12,360.8-1.13,369,.64,377.5c2.68,12.82,14.18,23.32,30.75,28.08,8.34,2.4,16.7,3.35,24.45,5.15a18.63,18.63,0,0,0,22.17-13,52.87,52.87,0,0,1,5-12.39c10.83-18.52,23.87-6.65,32.39-18.09,3.19-4.28,3-9.35,3.6-10.7,1.31-1.06,7.49-.35,9.82-.09a69.44,69.44,0,0,0,35-5.1,3.53,3.53,0,0,1,4.26,1.09c8.18,11.36,10,28,23,46.73,3.38,4.84,5.18,7.42,5.59,14.45-5.57,4.12-9.76,8.15-13.88,7.78-5.49-.48-9.71,4.87-8,11.1,1.93,7.14,13.06,16.68,17.05,18.62,5.08,2.48,10.42,2.12,15.89.84,14.7-3.44,21.21-15.74,23.36-19.79a19.77,19.77,0,0,1,2.84-1.31,10.35,10.35,0,0,0,10.27-4.14,16.87,16.87,0,0,0,.75-17.45c-2.82-5.21-7.31-8.24-12-11.41-5.27-3.61-8.4-13-11.42-22.08-2.45-7.33-5-14.91-9-20.77a22.77,22.77,0,0,1-2.82-5.59l39.11,23c4.37,2.56,4.52,2.37,3.82,9.13-.39,3.7-.83,7.9.51,12.31,2.21,7.28,8,11.3,12.47,15.26,1,2.46.08,10.29,6,14.76,2.89,2.2,9.43,3.3,15.26.75,3.28-1.44,11.76.37,17.06-6.3,3.38-4.25,3.25-10.09.05-14.71l-5.27-10.7c3.22,0,7.88,0,11.14,0,1.69,0,6.16,0,17.8-11.32,7.68-7.47,12-13.78,12.9-18.76,5.25-29.52,5.09-29.1,5.8-31.15a13.16,13.16,0,0,0,9.53-.43,14.45,14.45,0,0,0,7.7-8.84,1.65,1.65,0,0,1,.62.53,10.59,10.59,0,0,0,9.86,4.95,11.2,11.2,0,0,0,5.88-2.28c6.53-5,11-11.18,16.1-15.73a34.08,34.08,0,0,1,8.74-5.5,8.75,8.75,0,0,1-.16,3c-1.11,5-6.26,10.33-14.51,15-3.87,2.2-12.18,8.77-5.6,22.41A14.61,14.61,0,0,0,397.57,353c3.31,0,6.31-1.06,9.21-2.13,4.82-1.78,7.57-2.63,10.83-.61.51,1.82.86,4.65.19,6.1-.12.26-.28.61-1.37.92-10.2,2.89-16.13,3.47-25.1,4.36-4.11.41-8.76.87-14.62,1.64-8.09,1-20.3,2.63-28.3,11.3a44.77,44.77,0,0,0-5.32,7.52c-6.23,10.31-6.38,5-13.81,11.53-5.73,5-7.93,13.66-5.62,22,2.16,7.83,11.5,21.48,18.58,25,9.35,4.59,22.33.59,32.23-2.57,26.22-8.37,21.4-.19,34.2-.09h.15c9.25,0,13.53-5.9,25.46-12.61a7.5,7.5,0,1,0-7.34-13.08Z"/>
		<path class="border" d="M504.45,0C487.81.11,455,.26,450.07.05a49.46,49.46,0,0,0-35.85,13.36L370,55.15c-2.9,2.74-7.76,7.32-8.29,14.18-.63,8.31,5,11.46.9,16-7.4,8.16-23-.27-19.58-4.06a47.74,47.74,0,0,0,7.67-11.49,17.5,17.5,0,0,0-10.34-24.05C310.42,35.79,294.88,29.07,278,32.61c-21.6,4.53-34.36,24.11-44.86,43-21,37.82-26.53,31-41,41.26-3.48,2.47-26.29,26.55-20.52,40.27a21,21,0,0,0,18,12.62,31.25,31.25,0,0,0,17.6-4c-.45,12.67.45,28.19,6.47,35.85,5.08,6.45,13.89,8.16,22.71.55,10.67-9.21,22.07-33.42,22.46-44.1.34-9.19-4.53-13.54-7.14-15.88l-.6-.54c.82-6.12,3.35-9.21,7.43-23.52,2.59-9.07,4.82-16.9,11.77-21.25a6.93,6.93,0,0,1,8.27.35c.73.66,2.67,2.4,0,8.16-2.87,6.29-8.47,12.08-11.88,20.08-4.33,10.13-3.19,24.16,7.43,30.18,16.36,9.28,30.09-9.34,40.54-7.81-1.85,9-4.29,18.5-9.65,25.54-6.41,8.4-16.09,10.57-21.76,7.82a7.53,7.53,0,0,0-4.46-.66c-6.75,1.08-13.92,7.36-14.72,18.93-.39,5.51.65,10.94-.22,14.65-2.45,10.43-20.07,12.68-30.35,13.1l-29.79,1.22c-.12-6.52,4.69-21.06-3.74-29-7.84-7.44-27.05-5.81-31.39,5.21-1.56,3.95-1.28,8.27-1,12.45.52,8.22.56,7.57-5.18,11.32-19.08,12.48-16.84,20.31-21.73,24.75a13.75,13.75,0,0,1-4.43,2.26,7.5,7.5,0,1,0,4.93,14.16,27.21,27.21,0,0,0,9.6-5.32c8.67-7.89,3.82-12.81,19.84-23.29,17.59-11.5,10.63-20.76,11.83-30.31a11.4,11.4,0,0,1,7-.4c1.76,3.45-.89,11.54-.7,18.71.24,9.47,5.17,14.92,15.52,14.5l29.87-1.22c32.17-1.31,41.87-14.13,44.34-24.66,1.55-6.59.24-12.13.58-17a9.25,9.25,0,0,1,1.35-4.37c13.24,4.1,28.12-2.6,36.56-13.67s11.09-24.85,13.3-36c1.08-5.46-5.36-14.06-17.53-13.63-14.64.52-25.22,13.18-31.19,9.79-2.46-1.39-2.95-6.75-1-11.25,2.63-6.15,8.2-12,11.73-19.71,4.59-10,3.27-19.34-3.62-25.55a22,22,0,0,0-26.27-1.93C250.6,91.57,247.2,103.5,244.2,114c-4,14.12-7.31,18.43-8.06,27.29-.87,10.35,8,11.13,7.8,16.21-.27,7.46-11.53,30.17-18.74,34.4-2.52-3.81-4.43-19.48-1.63-41.18a7.5,7.5,0,0,0-12.42-6.56c-7.41,6.57-13.2,11.18-20.31,10.65a6.38,6.38,0,0,1-5.14-3.06c.38-5,11.35-19.76,15.17-22.64,12.61-8.95,22-4.14,45.4-46.22,8-14.51,18.56-32.22,34.83-35.63,12.4-2.61,25.63,3.08,54.5,12.67a2.5,2.5,0,0,1,1.52,3.38c-4,8.35-10.86,11-9.54,21.54,2,16.25,30.78,27.43,46.11,10.53,10.44-11.5,2.77-22.58,2.95-24.94.08-1.08,2.75-3.59,3.62-4.41l44.25-41.74A34.36,34.36,0,0,1,449.42,15c5.05.22,33.65.09,47.58,0V50.8a7.5,7.5,0,0,0,15,0V7.5A7.5,7.5,0,0,0,504.45,0Z"/>
	</g>
	<g class="circle">
		<circle cx="300.26" cy="445.5" r="7.3"/>
	</g>
</svg>