<svg
  xmlns="http://www.w3.org/2000/svg"
  viewBox="0 0 501.5 512"
>
	<g class="background">
		<path d="M481,147.5a27.49,27.49,0,0,1-5,5.37c-12,10.48-13.89,29.59-15.56,46.46-.69,7-1.72,17.4-3.52,20.63-5.6,1.5-9.84,5.31-13.95,9s-8.22,7.4-12.93,7.91c-13.76,1.51-23.72,11.91-24.79,25.88-1,13,6.08,24.45,16.8,27.32,7.91,2.12,10.46,3.58,11.22,4.14.1.65.18,1.84.24,2.75a50,50,0,0,0,2.35,13.4l-.34.26c-3.35,2.52-8.95,6.74-8.8,13.94.07,3.24,1.41,8,7.41,12.1a15.69,15.69,0,0,1,3.75,3.37c-5.53.14-13.53,1.45-17,8.57-4.51,9.29,2.77,17.8,9.8,26,1.27,1.48,3,3.54,4.41,5.33-8.67,7.89-7.86,16.62-7,20.36,1.34,5.63,5.06,11,11.05,16.1,5.05,4.27,9.11,6.57,12.07,6.84,1.51.13,2.89.24,4.17.33-.18.94-.33,1.94-.46,3-1,8.37-7,10.82-19.48,14.08-8.69,2.28-19.5,5.11-21.69,15.84-1,5.06-9.61,9.81-15,9.52-4.25-.23-7.82-3.14-13.3-7.86-7.31-6.3-17.31-14.94-32.81-12.81a74.69,74.69,0,0,1-11.63.85l-20-10.38c-4.54-.73-10.07-.12-17.27,1.73-29,7.45-43.29,23.42-43.29,48.56,0,.53,0,1.06,0,1.59a14.45,14.45,0,0,0-7.6,2.61c-3.15,2.24-3.15,2.24-6.83.08-2.82-1.65-6.82-4-12-4a17.12,17.12,0,0,0-3.54.37,16.93,16.93,0,0,1-4,.42c-.27-.87-.54-2.26-.73-3.25-.81-4.15-2-10.41-7.77-14.09-3.77-2.42-8.38-3-13.72-1.7-5.65,1.37-8.16,1.2-9,1.07-.19-.28-.43-.69-.63-1-1.72-2.87-5.28-9.71-14.18-9.52-5,.1-15,1.92-20,2.43-9.77,1-13-1.19-15.38-2.61a19.39,19.39,0,0,0-10.55-3.45c-8,0-10-1.46-11.88-2.86a19.39,19.39,0,0,0-6.8-3.56c-7.2-1.92-12.9-4.08-16.95-6.42l-.12-.07c0-.3,0-.63,0-.91.34-7.89-1.24-16-13.78-22.69,2-4.41,6-11.32,9.45-17.17,12.31-21.11,29.18-50,30.66-79.74.21-4.22,2.47-9,4.46-13.15,3-6.3,7.52-15.78-.12-22.68-1-2-1.51-8.42-1.8-12.32-.81-10.85-1.92-25.7-14.69-29.38-5.34-1.53-10.13-12.78-11.62-18.76a27.9,27.9,0,0,0,2.41-19.2c-5.1-23.07-37.19-43.49-50.75-51.2-11.4-6.49-16.61-7.3-21.79-7.64-2.05-.13-3.19-.21-6.65-1.93a18.81,18.81,0,0,1-3.49-2.12,44.4,44.4,0,0,1,3.09-4.17c3.31-4.12,7.85-9.77,6.07-16.9a13.38,13.38,0,0,0-4.21-6.82c3-.74,6.11-1.13,7.82-.8,11.21,7.61,16.47,10.56,22.47,9.13a12.43,12.43,0,0,0,8-6.41c1.13-.21,4-.47,10.22.49,10.94,23.15,30.81,17.84,38.37,15.58a23.6,23.6,0,0,0,13.36,1.73,14.91,14.91,0,0,0,8-3.37,14.89,14.89,0,0,0,5.67-5.23c5.72-9,2.3-23.17-3.17-42.23-.78-2.74-1.53-5.33-2.09-7.52,3.86-.19,11.88,2.6,14.85,8.32s6.32,10.68,10.93,13.24a100.84,100.84,0,0,0,20,7.52c3.82.85,7.68,0,11.07-.63,10.85-2.17,18-8.23,18.61-15.81.26-3.16.85-4.31,1-4.57,1.07-.55,4.88-.72,7.42-.83,5.45-.24,12.23-.53,19.49-3.3,19.14-7.28,27.27-14.94,27.64-26.18,7.91-11.92,8.23-20.4,6.81-27.64,4.43-1.7,12.69-3.88,19.07-5.47l1.44,2.28c5.79,9.21,12.36,19.65,24.32,28.13,0,0,15.77,22.85,23.61,27.31,5,2.83,22.48,4,22.48,4,.06.26.12.5.17.73,1.6,6.93,4.94,21.33,28.46,23.6,10.68,1,12.15,3,14,5.43,2.49,3.29,6.24,8.26,16,10.55,5.9,1.38,7.42,3.07,9.71,5.61,2.79,3.1,6.61,7.34,14.87,9l2.7.55C459.54,140.7,476.07,144.05,481,147.5Z"/>
	</g>
	<g class="border">
		<path d="M500.92,142.48c-3.86-14.58-24.13-18.69-47.59-23.45l-2.68-.54c-1.81-.37-2.1-.7-4-2.81-3.19-3.54-8-8.89-20-11.7-2.7-.64-2.95-1-4.58-3.13-4.55-6-10.11-11.56-28.05-13.29-9.2-.88-9.66-2.88-10.89-8.2-1-4.43-3.76-16.2-17.81-16.2-10.07,0-14.32-1.28-16.11-2.36-1.37-.81-2.06-2-3.84-5.55-2.7-5.35-6.39-12.66-16.43-19.78C320.23,29.3,315.25,21.39,310,13c-1.79-2.86-3.65-5.82-5.68-8.73a10,10,0,0,0-10.54-4C266.51,6.82,258,9.74,253.84,16.51c-3.11,5.09-1.91,10-1.19,12.94.8,3.3,1.64,6.72-4.58,15.45a13.83,13.83,0,0,0-2.32,8.66c0,.15,0,.32,0,.47-.63.78-3.58,3.69-14.78,8-4.23,1.61-8.81,1.81-13.24,2-9.13.4-24.13,1.05-27.14,20.71a19.61,19.61,0,0,1-10.94.86c-5.42-1.11-9.57-4.38-12.34-9.72-8.1-15.6-28.77-22.22-41.15-17.51-9.29,3.54-13.59,12.52-11,22.89.65,2.57,1.48,5.47,2.37,8.55,1.73,6,5.54,19.32,5.42,25-.22.13-.43.26-.64.41a10,10,0,0,0-3.3-1.91c-4-1.4-7.73-.28-11.31.79-8,2.4-12.33,3.72-16.52-8.38a10,10,0,0,0-7.42-6.52C67.55,95.77,57.49,96.55,51.24,102c-1.58-1-3.73-2.39-6.67-4.38-8.84-6-25.73-2.35-34.52,2.62C.88,105.43-.17,112.05,0,115.54c.27,4.84,2.85,8.92,7.69,12.18C4,132.41-.72,139.13,1.13,147.52c1.42,6.44,6.19,11.6,14.61,15.77,6.52,3.24,10.3,3.72,14.23,4,2.51.16,4.88.32,13.22,5.06,18.6,10.58,38.52,26.47,41.1,38.13a8,8,0,0,1-1.39,6.9c-1.59,2.23-3.77,5.29.89,18.61,2.87,8.24,9.54,22.42,22.35,26.92.92,2.44,1.36,8.38,1.64,12.08.59,7.94,1.2,16.09,5.15,22-.42.94-.92,2-1.34,2.88-2.52,5.29-6,12.53-6.38,20.74C104,345.48,88.52,372,77.24,391.3c-10,17.23-15.59,26.72-12.65,35.32a13.08,13.08,0,0,0,7.6,8c5,2,6.4,3.46,6.7,3.82a18.83,18.83,0,0,1,0,2c-.18,4.23-.56,13,10.06,19.17,5.53,3.18,12.47,5.89,21.22,8.26l.62.45c4.35,3.23,10.07,6.67,23,6.8.27.15.62.37.91.54,7.38,4.49,16.73,8.44,42.24,3.24.26-.06.48-.1.68-.13,5.85,9.58,14.25,12.42,28.56,9.5.87,4.42,2.42,11.41,8.87,15.72,4.81,3.2,10.94,4,18.73,2.56.55.26,1.42.77,2.1,1.17,2.82,1.65,7.42,4.35,13.5,4.35a24.55,24.55,0,0,0,13.1-4.1,13.43,13.43,0,0,1,3.13,1.52,10,10,0,0,0,16.42-9.57c-5.42-25.24,1.56-36.48,26.64-42.93,5.28-1.35,7.74-1.46,8.69-1.42l.46.57c6.49,8.14,14.71,12.24,37.5,9.1,6.26-.86,10.14,2.2,17,8.13,6.24,5.39,14,12.1,25.31,12.69,13.72.73,31-8.76,35.23-23.68A65.73,65.73,0,0,1,440.5,460c11.77-3.08,31.47-8.24,34.27-31a19.48,19.48,0,0,1,2.41-7.68c.95-1.77,3.48-6.49.51-11.66s-8.27-5.48-12.86-5.64c-2.17-.07-5.3-.18-9.66-.52-3.28-2.16-7.17-5.88-7.61-7.73a9.57,9.57,0,0,1,3-2.56,13.27,13.27,0,0,0,6.23-9.32c1.23-8-4.69-14.94-11-22.27-.47-.56-1-1.19-1.58-1.86,5.72-1.22,11.06-6.12,13.17-12.47,1.06-3.16,3.24-13.25-7-23.08,4-3.51,8.79-9.55,5.26-17.78a28.77,28.77,0,0,1-2.28-10.76c-.27-4.26-.64-10.1-5.6-15.2-3.92-4-9.9-6.86-20.64-9.73-.72-.2-2.32-2.71-2-6.48.24-3.11,1.65-6.93,7-7.52,11.11-1.22,18.63-8,24.12-12.93,1.86-1.67,4.66-4.19,5.68-4.53,14.86-3,16.62-20.79,18.32-38,1.24-12.52,2.78-28.1,8.81-33.37C492.83,164.67,504.17,154.75,500.92,142.48Zm-25,10.39c-12,10.48-13.89,29.59-15.56,46.46-.69,7-1.72,17.4-3.52,20.63-5.6,1.5-9.84,5.31-13.95,9s-8.22,7.4-12.93,7.91c-13.76,1.51-23.72,11.91-24.79,25.88-1,13,6.08,24.45,16.8,27.32,7.91,2.12,10.46,3.58,11.22,4.14.1.65.18,1.84.24,2.75a50,50,0,0,0,2.35,13.4l-.34.26c-3.35,2.52-8.95,6.74-8.8,13.94.07,3.24,1.41,8,7.41,12.1a15.69,15.69,0,0,1,3.75,3.37c-5.53.14-13.53,1.45-17,8.57-4.51,9.29,2.77,17.8,9.8,26,1.27,1.48,3,3.54,4.41,5.33-8.67,7.89-7.86,16.62-7,20.36,1.34,5.63,5.06,11,11.05,16.1,5.05,4.27,9.11,6.57,12.07,6.84,1.51.13,2.89.24,4.17.33-.18.94-.33,1.94-.46,3-1,8.37-7,10.82-19.48,14.08-8.69,2.28-19.5,5.11-21.69,15.84-1,5.06-9.61,9.81-15,9.52-4.25-.23-7.82-3.14-13.3-7.86-7.31-6.3-17.31-14.94-32.81-12.81a74.69,74.69,0,0,1-11.63.85l-20-10.38c-4.54-.73-10.07-.12-17.27,1.73-29,7.45-43.29,23.42-43.29,48.56,0,.53,0,1.06,0,1.59a14.45,14.45,0,0,0-7.6,2.61c-3.15,2.24-3.15,2.24-6.83.08-2.82-1.65-6.82-4-12-4a17.12,17.12,0,0,0-3.54.37,16.93,16.93,0,0,1-4,.42c-.27-.87-.54-2.26-.73-3.25-.81-4.15-2-10.41-7.77-14.09-3.77-2.42-8.38-3-13.72-1.7-5.65,1.37-8.16,1.2-9,1.07-.19-.28-.43-.69-.63-1-1.72-2.87-5.28-9.71-14.18-9.52-5,.1-15,1.92-20,2.43-9.77,1-13-1.19-15.38-2.61a19.39,19.39,0,0,0-10.55-3.45c-8,0-10-1.46-11.88-2.86a19.39,19.39,0,0,0-6.8-3.56c-7.2-1.92-12.9-4.08-16.95-6.42l-.12-.07c0-.3,0-.63,0-.91.34-7.89-1.24-16-13.78-22.69,2-4.41,6-11.32,9.45-17.17,12.31-21.11,29.18-50,30.66-79.74.21-4.22,2.47-9,4.46-13.15,3-6.3,7.52-15.78-.12-22.68-1-2-1.51-8.42-1.8-12.32-.81-10.85-1.92-25.7-14.69-29.38-5.34-1.53-10.13-12.78-11.62-18.76a27.9,27.9,0,0,0,2.41-19.2c-5.1-23.07-37.19-43.49-50.75-51.2-11.4-6.49-16.61-7.3-21.79-7.64-2.05-.13-3.19-.21-6.65-1.93a18.81,18.81,0,0,1-3.49-2.12,44.4,44.4,0,0,1,3.09-4.17c3.31-4.12,7.85-9.77,6.07-16.9a13.38,13.38,0,0,0-4.21-6.82c3-.74,6.11-1.13,7.82-.8,11.21,7.61,16.47,10.56,22.47,9.13a12.43,12.43,0,0,0,8-6.41c1.13-.21,4-.47,10.22.49,10.94,23.15,30.81,17.84,38.37,15.58a23.6,23.6,0,0,0,13.36,1.73,14.91,14.91,0,0,0,8-3.37,14.89,14.89,0,0,0,5.67-5.23c5.72-9,2.3-23.17-3.17-42.23-.78-2.74-1.53-5.33-2.09-7.52,3.86-.19,11.88,2.6,14.85,8.32s6.32,10.68,10.93,13.24a100.84,100.84,0,0,0,20,7.52c3.82.85,7.68,0,11.07-.63,10.85-2.17,18-8.23,18.61-15.81.26-3.16.85-4.31,1-4.57,1.07-.55,4.88-.72,7.42-.83,5.45-.24,12.23-.53,19.49-3.3,19.14-7.28,27.27-14.94,27.64-26.18,7.91-11.92,8.23-20.4,6.81-27.64,4.43-1.7,12.69-3.88,19.07-5.47l1.44,2.28c5.79,9.21,12.36,19.65,24.32,28.13,0,0,15.77,22.85,23.61,27.31,5,2.83,22.48,4,22.48,4,.06.26.12.5.17.73,1.6,6.93,4.94,21.33,28.46,23.6,10.68,1,12.15,3,14,5.43,2.49,3.29,6.24,8.26,16,10.55,5.9,1.38,7.42,3.07,9.71,5.61,2.79,3.1,6.61,7.34,14.87,9l2.7.55c10.19,2.07,26.72,5.42,31.6,8.87A27.49,27.49,0,0,1,475.94,152.87Z"/>
	</g>
	<g class="circle">
		<circle cx="205.1" cy="165.9" r="7.3"/>
	</g>
</svg>
